<svg xmlns="http://www.w3.org/2000/svg" viewBox="0 0 512 512" fill="#53B0AD">
  <path d="M256 0C114.6 0 0 114.6 0 256s114.6 256 256 256 256-114.6 256-256S397.4 0 256 0zm0 464c-114.7 0-208-93.3-208-208S141.3 48 256 48s208 93.3 208 208-93.3 208-208 208zm88-304c0-26.5-21.5-48-48-48s-48 21.5-48 48 21.5 48 48 48 48-21.5 48-48zm-141.2 87l-26.1 113.1c-4.4 19.1 7.6 38.1 26.7 42.5 19.1 4.4 38.1-7.6 42.5-26.7l23.1-100.1 52.4 33.3c15.1 9.6 35.1 5.1 44.7-10 9.6-15.1 5.1-35.1-10-44.7l-85.3-54.3c-12.8-8.2-29.4-6.4-40.2 4.3L156.4 256c-13.1 13.1-13.1 34.4 0 47.5 13.1 13.1 34.4 13.1 47.5 0l42.3-42.3c6.8-6.8 17.8-6.8 24.6 0z"/>
</svg>